REM MD5 c28738770450af0d046e07f57a5d39c8
FILE "Wakusei Koukitai - Little Cats (Japan).bin" BINARY
  TRACK 01 MODE2/2352
    INDEX 01 00:00:00
  TRACK 02 AUDIO
    INDEX 00 34:27:57
    INDEX 01 34:29:57
  TRACK 03 AUDIO
    INDEX 00 37:31:57
    INDEX 01 37:33:57
REM LEADOUT 40:33:58
